<?xml version="1.0" encoding="UTF-8" standalone="no"?>
<!-- Generator: Adobe Illustrator 19.0.0, SVG Export Plug-In . SVG Version: 6.00 Build 0)  -->

<svg
   xmlns:dc="http://purl.org/dc/elements/1.1/"
   xmlns:cc="http://creativecommons.org/ns#"
   xmlns:rdf="http://www.w3.org/1999/02/22-rdf-syntax-ns#"
   xmlns:svg="http://www.w3.org/2000/svg"
   xmlns="http://www.w3.org/2000/svg"
   xmlns:sodipodi="http://sodipodi.sourceforge.net/DTD/sodipodi-0.dtd"
   xmlns:inkscape="http://www.inkscape.org/namespaces/inkscape"
   version="1.1"
   id="Capa_1"
   x="0px"
   y="0px"
   viewBox="0 0 477.862 477.862"
   style="enable-background:new 0 0 477.862 477.862;"
   xml:space="preserve"
   sodipodi:docname="atras.svg"
   inkscape:version="0.92.1 r15371"><metadata
     id="metadata43"><rdf:RDF><cc:Work
         rdf:about=""><dc:format>image/svg+xml</dc:format><dc:type
           rdf:resource="http://purl.org/dc/dcmitype/StillImage" /></cc:Work></rdf:RDF></metadata><defs
     id="defs41" /><sodipodi:namedview
     pagecolor="#ffffff"
     bordercolor="#666666"
     borderopacity="1"
     objecttolerance="10"
     gridtolerance="10"
     guidetolerance="10"
     inkscape:pageopacity="0"
     inkscape:pageshadow="2"
     inkscape:window-width="1366"
     inkscape:window-height="728"
     id="namedview39"
     showgrid="false"
     inkscape:zoom="0.49386643"
     inkscape:cx="238.931"
     inkscape:cy="238.931"
     inkscape:window-x="0"
     inkscape:window-y="0"
     inkscape:window-maximized="1"
     inkscape:current-layer="Capa_1" /><g
     id="g6"
     style="fill:#0d5986;fill-opacity:1"><g
       id="g4"
       style="fill:#0d5986;fill-opacity:1"><path
         d="M187.722,102.856V17.062C187.719,7.636,180.076-0.003,170.65,0c-4.834,0.001-9.44,2.053-12.676,5.644L4.375,176.311    c-5.617,6.256-5.842,15.67-0.529,22.187l153.6,187.733c5.968,7.295,16.72,8.371,24.016,2.403c3.952-3.233,6.249-8.066,6.26-13.172    v-85.043c134.827,4.386,218.965,62.02,256.888,175.787c2.326,6.96,8.841,11.653,16.179,11.656c0.92,0.003,1.84-0.072,2.748-0.222    c8.256-1.347,14.319-8.479,14.319-16.845C477.855,259.818,356.87,112.174,187.722,102.856z"
         id="path2"
         style="fill:#0d5986;fill-opacity:1" /></g></g><g
     id="g8" /><g
     id="g10" /><g
     id="g12" /><g
     id="g14" /><g
     id="g16" /><g
     id="g18" /><g
     id="g20" /><g
     id="g22" /><g
     id="g24" /><g
     id="g26" /><g
     id="g28" /><g
     id="g30" /><g
     id="g32" /><g
     id="g34" /><g
     id="g36" /></svg>