<?xml version="1.0" encoding="UTF-8" standalone="no"?>
<!-- Created with Inkscape (http://www.inkscape.org/) -->

<svg
   xmlns:dc="http://purl.org/dc/elements/1.1/"
   xmlns:cc="http://creativecommons.org/ns#"
   xmlns:rdf="http://www.w3.org/1999/02/22-rdf-syntax-ns#"
   xmlns:svg="http://www.w3.org/2000/svg"
   xmlns="http://www.w3.org/2000/svg"
   xmlns:sodipodi="http://sodipodi.sourceforge.net/DTD/sodipodi-0.dtd"
   xmlns:inkscape="http://www.inkscape.org/namespaces/inkscape"
   width="135.46667mm"
   height="126.99265mm"
   viewBox="0 0 135.46667 126.99265"
   version="1.1"
   id="svg8"
   inkscape:version="0.92.1 r15371"
   sodipodi:docname="home.svg">
  <defs
     id="defs2" />
  <sodipodi:namedview
     id="base"
     pagecolor="#ffffff"
     bordercolor="#666666"
     borderopacity="1.0"
     inkscape:pageopacity="0.0"
     inkscape:pageshadow="2"
     inkscape:zoom="0.35"
     inkscape:cx="-242.57144"
     inkscape:cy="48.557525"
     inkscape:document-units="mm"
     inkscape:current-layer="layer1"
     showgrid="false"
     inkscape:window-width="1366"
     inkscape:window-height="728"
     inkscape:window-x="0"
     inkscape:window-y="0"
     inkscape:window-maximized="1" />
  <metadata
     id="metadata5">
    <rdf:RDF>
      <cc:Work
         rdf:about="">
        <dc:format>image/svg+xml</dc:format>
        <dc:type
           rdf:resource="http://purl.org/dc/dcmitype/StillImage" />
        <dc:title></dc:title>
      </cc:Work>
    </rdf:RDF>
  </metadata>
  <g
     inkscape:label="Capa 1"
     inkscape:groupmode="layer"
     id="layer1"
     transform="translate(-16.177385,-34.688203)">
    <g
       id="g4533"
       transform="matrix(0.26458592,0,0,0.26458592,16.177253,30.451256)"
       style="fill:#0d5986;fill-opacity:1">
      <path
         id="path4531"
         d="M 507.308,236.641 308.328,37.651 c -28.86,-28.85 -75.8,-28.85 -104.66,0 L 4.688,236.641 c -6.25,6.25 -6.25,16.38 0,22.63 6.24,6.25 16.38,6.25 22.62,0 l 12.69,-12.69 v 203.4 c 0,25.405 20.595,46 46,46 h 80 c 5.523,0 10,-4.477 10,-10 v -148 c 0,-27.614 22.386,-50 50,-50 h 60 c 27.614,0 50,22.386 50,50 v 148 c 0,5.523 4.477,10 10,10 h 80 c 25.405,0 46,-20.595 46,-46 v -203.4 l 12.69,12.69 c 3.12,3.12 7.22,4.69 11.31,4.69 4.09,0 8.19,-1.57 11.31,-4.69 6.25,-6.25 6.25,-16.38 0,-22.63 z"
         inkscape:connector-curvature="0"
         style="fill:#0d5986;fill-opacity:1" />
    </g>
  </g>
</svg>
