<?xml version="1.0" encoding="UTF-8" standalone="no"?>
<!-- Created with Inkscape (http://www.inkscape.org/) -->

<svg
   xmlns:dc="http://purl.org/dc/elements/1.1/"
   xmlns:cc="http://creativecommons.org/ns#"
   xmlns:rdf="http://www.w3.org/1999/02/22-rdf-syntax-ns#"
   xmlns:svg="http://www.w3.org/2000/svg"
   xmlns="http://www.w3.org/2000/svg"
   xmlns:sodipodi="http://sodipodi.sourceforge.net/DTD/sodipodi-0.dtd"
   xmlns:inkscape="http://www.inkscape.org/namespaces/inkscape"
   width="658.17633"
   height="456.80817"
   viewBox="0 0 174.14248 120.86383"
   version="1.1"
   id="svg8"
   inkscape:version="0.92.1 r15371"
   sodipodi:docname="nubeTitulo.svg">
  <defs
     id="defs2" />
  <sodipodi:namedview
     id="base"
     pagecolor="#ffffff"
     bordercolor="#666666"
     borderopacity="1.0"
     inkscape:pageopacity="0.0"
     inkscape:pageshadow="2"
     inkscape:zoom="0.7"
     inkscape:cx="424.4552"
     inkscape:cy="219.61805"
     inkscape:document-units="mm"
     inkscape:current-layer="layer1"
     showgrid="false"
     units="px"
     inkscape:window-width="1366"
     inkscape:window-height="728"
     inkscape:window-x="0"
     inkscape:window-y="0"
     inkscape:window-maximized="1" />
  <metadata
     id="metadata5">
    <rdf:RDF>
      <cc:Work
         rdf:about="">
        <dc:format>image/svg+xml</dc:format>
        <dc:type
           rdf:resource="http://purl.org/dc/dcmitype/StillImage" />
        <dc:title></dc:title>
      </cc:Work>
    </rdf:RDF>
  </metadata>
  <g
     inkscape:label="Capa 1"
     inkscape:groupmode="layer"
     id="layer1"
     transform="translate(-9.321039,-113.15863)">
    <path
       style="opacity:0.98999999;fill:#ffffff;fill-opacity:1;fill-rule:evenodd;stroke:#202020;stroke-width:0.28998393;stroke-linejoin:miter;stroke-miterlimit:4;stroke-dasharray:none;stroke-opacity:1;paint-order:stroke markers fill"
       d="m 161.77359,113.3037 a 21.544643,20.410715 0 0 0 -0.2465,0.008 H 9.4666058 l 0.3937744,99.52519 a 21.544643,20.410715 0 0 0 -0.033073,0.62993 21.544643,20.410715 0 0 0 0.039791,1.06247 l 0.010852,2.70888 0.3069578,-0.11731 a 21.544643,20.410715 0 0 0 21.187338,16.7566 21.544643,20.410715 0 0 0 18.415414,-9.86555 21.544643,20.410715 0 0 0 21.057629,-18.12137 21.544643,20.410715 0 0 0 8.151958,1.52859 21.544643,20.410715 0 0 0 16.890957,-7.77575 21.544643,20.410715 0 0 0 6.543266,0.97255 21.544643,20.410715 0 0 0 21.45089,-18.63452 21.544643,20.410715 0 0 0 4.62969,0.49144 21.544643,20.410715 0 0 0 21.16719,-16.68167 21.544643,20.410715 0 0 0 18.39577,-12.57959 21.544643,20.410715 0 0 0 15.24352,-19.49752 21.544643,20.410715 0 0 0 -19.28461,-20.29334 v -0.10903 h -2.08566 a 21.544643,20.410715 0 0 0 -0.17467,-0.008 z"
       id="rect4598"
       inkscape:connector-curvature="0" />
  </g>
</svg>
