<?xml version="1.0" encoding="UTF-8" standalone="no"?>
<!-- Created with Inkscape (http://www.inkscape.org/) -->

<svg
   xmlns:dc="http://purl.org/dc/elements/1.1/"
   xmlns:cc="http://creativecommons.org/ns#"
   xmlns:rdf="http://www.w3.org/1999/02/22-rdf-syntax-ns#"
   xmlns:svg="http://www.w3.org/2000/svg"
   xmlns="http://www.w3.org/2000/svg"
   xmlns:sodipodi="http://sodipodi.sourceforge.net/DTD/sodipodi-0.dtd"
   xmlns:inkscape="http://www.inkscape.org/namespaces/inkscape"
   width="49.212517mm"
   height="43.363739mm"
   viewBox="0 0 49.212514 43.363734"
   version="1.1"
   id="svg8"
   inkscape:version="0.92.1 r15371"
   sodipodi:docname="services.svg">
  <defs
     id="defs2" />
  <sodipodi:namedview
     id="base"
     pagecolor="#ffffff"
     bordercolor="#666666"
     borderopacity="1.0"
     inkscape:pageopacity="0.0"
     inkscape:pageshadow="2"
     inkscape:zoom="0.35"
     inkscape:cx="-217.78079"
     inkscape:cy="-170.5637"
     inkscape:document-units="mm"
     inkscape:current-layer="layer1"
     showgrid="false"
     inkscape:window-width="1366"
     inkscape:window-height="728"
     inkscape:window-x="0"
     inkscape:window-y="0"
     inkscape:window-maximized="1" />
  <metadata
     id="metadata5">
    <rdf:RDF>
      <cc:Work
         rdf:about="">
        <dc:format>image/svg+xml</dc:format>
        <dc:type
           rdf:resource="http://purl.org/dc/dcmitype/StillImage" />
        <dc:title />
      </cc:Work>
    </rdf:RDF>
  </metadata>
  <g
     inkscape:label="Capa 1"
     inkscape:groupmode="layer"
     id="layer1"
     transform="translate(-66.692597,-60.341305)">
    <g
       transform="translate(1.4363605,21.593459)"
       id="IconServicios"
       inkscape:label="Capa 1"
       style="fill:#0d5986;fill-opacity:1">
      <path
         inkscape:connector-curvature="0"
         id="iconService"
         d="m 68.431237,81.943803 c -0.218281,-0.0798 -0.664766,-0.38881 -0.992187,-0.68669 -0.574842,-0.52299 -0.595313,-0.7038 -0.595313,-5.25799 v -4.71638 h 9.099817 c 10.2422,0 9.42102,-0.1887 9.42102,2.16476 0,1.1572 0.11554,1.44328 0.89958,2.22732 l 0.89958,0.89958 h 2.65199 c 2.46051,0 2.71021,-0.049 3.45831,-0.67846 0.86431,-0.72727 1.3471,-2.02273 1.34948,-3.62102 l 0.001,-0.99218 h 9.099806 c 8.05377,0 9.11828,0.0481 9.26042,0.41851 0.0883,0.23018 0.1606,2.14696 0.1606,4.25949 0,4.22288 -0.27683,5.32028 -1.48041,5.86867 -0.478,0.21779 -6.50294,0.29546 -21.749226,0.28035 -11.59844,-0.0115 -21.266662,-0.0862 -21.484943,-0.16596 z m 20.114597,-6.94371 c -1.70657,-0.20962 -1.88915,-0.70005 -1.79924,-4.83314 0.0924,-4.24617 0.13767,-4.30817 3.14872,-4.30817 3.02203,0 3.14217,0.17704 3.14217,4.63021 0,2.83607 -0.0746,3.46874 -0.46302,3.92565 -0.51394,0.60459 -2.05252,0.82818 -4.02863,0.58545 z m -21.764917,-5.71903 c -1.488459,-0.80763 -1.52468,-1.07781 -1.52468,-11.3731 v -9.43231 l 0.899583,-0.89958 0.899584,-0.89958 6.17802,-0.004 c 3.39791,-0.002 6.35131,-0.11367 6.5631,-0.24765 0.24667,-0.15603 0.44727,-0.92201 0.55808,-2.13096 0.21667,-2.36379 1.10523,-3.76049 3.01974,-4.74664 1.20988,-0.62319 1.63125,-0.68299 5.40224,-0.76669 5.34434,-0.11862 6.59054,0.0498 8.1507,1.10179 1.51796,1.02349 2.38153,2.60418 2.62771,4.80982 0.0975,0.87313 0.30799,1.67498 0.467856,1.78189 0.15987,0.10691 3.07078,0.19621 6.46869,0.19844 l 6.17803,0.004 0.89958,0.89958 0.89958,0.89958 v 9.62488 c 0,10.54101 0.0252,10.3639 -1.59042,11.19934 -0.63305,0.32737 -2.26849,0.39537 -9.50894,0.39537 h -8.744386 l -0.006,-0.8599 c -0.012,-1.63713 -0.4798,-2.96316 -1.30673,-3.70417 -0.7722,-0.69197 -0.94264,-0.7276 -3.48009,-0.7276 h -2.66811 l -0.89959,0.89958 c -0.78403,0.78404 -0.89958,1.07013 -0.89958,2.22732 0,2.35131 0.78156,2.1661 -9.09029,2.15417 -7.240065,-0.009 -8.895374,-0.0791 -9.493363,-0.40358 z m 30.227097,-23.00358 c 0.4574,-0.55114 0.18627,-2.65919 -0.45451,-3.53382 -1.03227,-1.40899 -1.91312,-1.6226 -6.69102,-1.6226 -3.63395,0 -4.51767,0.0775 -5.27286,0.46261 -1.23132,0.62787 -1.83431,1.53743 -2.04303,3.08174 -0.27331,2.02228 -0.31491,2.01108 7.46636,2.01108 5.61654,0 6.71595,-0.0627 6.99506,-0.39901 z"
         style="fill:#0d5986;fill-opacity:1;stroke-width:0.26458332" />
    </g>
  </g>
</svg>
